<?xml version="1.0" encoding="UTF-8"?>
<svg xmlns="http://www.w3.org/2000/svg" width="722.70" height="578.16" viewBox="0,0,722.70,578.16">
<desc>R SVG Plot!</desc>
<rect width="100%" height="100%" style="fill:#FFFFFF"/>
<polygon points="0.00 , 578.16 0.00 , 0.00 722.70 , 0.00 722.70 , 578.16 " style="stroke-width:1;stroke:#FFFFFF;fill:#FFFFFF;stroke-opacity:1.000000;fill-opacity:1.000000" />
<polygon points="40.94 , 25.27 40.94 , 12.05 335.90 , 12.05 335.90 , 25.27 " style="stroke-width:1;stroke:#FFFFFF;fill:#CCCCCC;stroke-opacity:0.000000;fill-opacity:1.000000" />
<text transform="translate(172.14,22.26)"  style="font-size:10" >Linalool</text>
<polygon points="338.91 , 25.27 338.91 , 12.05 633.87 , 12.05 633.87 , 25.27 " style="stroke-width:1;stroke:#FFFFFF;fill:#CCCCCC;stroke-opacity:0.000000;fill-opacity:1.000000" />
<text transform="translate(467.47,22.26)"  style="font-size:10" >Nonenol</text>
<polygon points="40.94 , 542.80 40.94 , 25.27 335.90 , 25.27 335.90 , 542.80 " style="stroke-width:1;stroke:#FFFFFF;fill:#E5E5E5;stroke-opacity:0.000000;fill-opacity:1.000000" />
<polyline points="40.94 , 453.47 335.90 , 453.47 " style="stroke-width:0;stroke:#F2F2F2;fill:#000000;stroke-opacity:1.000000;fill-opacity:0.000000"/>
<polyline points="40.94 , 321.87 335.90 , 321.87 " style="stroke-width:0;stroke:#F2F2F2;fill:#000000;stroke-opacity:1.000000;fill-opacity:0.000000"/>
<polyline points="40.94 , 190.26 335.90 , 190.26 " style="stroke-width:0;stroke:#F2F2F2;fill:#000000;stroke-opacity:1.000000;fill-opacity:0.000000"/>
<polyline points="40.94 , 58.65 335.90 , 58.65 " style="stroke-width:0;stroke:#F2F2F2;fill:#000000;stroke-opacity:1.000000;fill-opacity:0.000000"/>
<polyline points="40.94 , 519.28 335.90 , 519.28 " style="stroke-width:1;stroke:#FFFFFF;fill:#000000;stroke-opacity:1.000000;fill-opacity:0.000000"/>
<polyline points="40.94 , 387.67 335.90 , 387.67 " style="stroke-width:1;stroke:#FFFFFF;fill:#000000;stroke-opacity:1.000000;fill-opacity:0.000000"/>
<polyline points="40.94 , 256.06 335.90 , 256.06 " style="stroke-width:1;stroke:#FFFFFF;fill:#000000;stroke-opacity:1.000000;fill-opacity:0.000000"/>
<polyline points="40.94 , 124.45 335.90 , 124.45 " style="stroke-width:1;stroke:#FFFFFF;fill:#000000;stroke-opacity:1.000000;fill-opacity:0.000000"/>
<polyline points="96.24 , 542.80 96.24 , 25.27 " style="stroke-width:1;stroke:#FFFFFF;fill:#000000;stroke-opacity:1.000000;fill-opacity:0.000000"/>
<polyline points="188.42 , 542.80 188.42 , 25.27 " style="stroke-width:1;stroke:#FFFFFF;fill:#000000;stroke-opacity:1.000000;fill-opacity:0.000000"/>
<polyline points="280.59 , 542.80 280.59 , 25.27 " style="stroke-width:1;stroke:#FFFFFF;fill:#000000;stroke-opacity:1.000000;fill-opacity:0.000000"/>
<rect x="54.76" y="451.54" width="82.96" height="67.73" style="stroke-width:1;stroke:#FFFFFF;fill:#F8766D;stroke-opacity:0.000000;fill-opacity:1.000000" />
<rect x="54.76" y="116.96" width="82.96" height="402.31" style="stroke-width:1;stroke:#FFFFFF;fill:#F8766D;stroke-opacity:0.000000;fill-opacity:1.000000" />
<rect x="146.94" y="263.80" width="82.96" height="255.48" style="stroke-width:1;stroke:#FFFFFF;fill:#F8766D;stroke-opacity:0.000000;fill-opacity:1.000000" />
<rect x="239.11" y="301.23" width="82.96" height="218.05" style="stroke-width:1;stroke:#FFFFFF;fill:#F8766D;stroke-opacity:0.000000;fill-opacity:1.000000" />
<polyline points="54.76 , 430.75 137.72 , 430.75 " style="stroke-width:1;stroke:#000000;fill:#000000;stroke-opacity:1.000000;fill-opacity:0.000000"/>
<polyline points="96.24 , 430.75 96.24 , 472.34 " style="stroke-width:1;stroke:#000000;fill:#000000;stroke-opacity:1.000000;fill-opacity:0.000000"/>
<polyline points="54.76 , 472.34 137.72 , 472.34 " style="stroke-width:1;stroke:#000000;fill:#000000;stroke-opacity:1.000000;fill-opacity:0.000000"/>
<polyline points="54.76 , 48.79 137.72 , 48.79 " style="stroke-width:1;stroke:#000000;fill:#000000;stroke-opacity:1.000000;fill-opacity:0.000000"/>
<polyline points="96.24 , 48.79 96.24 , 185.14 " style="stroke-width:1;stroke:#000000;fill:#000000;stroke-opacity:1.000000;fill-opacity:0.000000"/>
<polyline points="54.76 , 185.14 137.72 , 185.14 " style="stroke-width:1;stroke:#000000;fill:#000000;stroke-opacity:1.000000;fill-opacity:0.000000"/>
<polyline points="146.94 , 201.65 229.90 , 201.65 " style="stroke-width:1;stroke:#000000;fill:#000000;stroke-opacity:1.000000;fill-opacity:0.000000"/>
<polyline points="188.42 , 201.65 188.42 , 325.94 " style="stroke-width:1;stroke:#000000;fill:#000000;stroke-opacity:1.000000;fill-opacity:0.000000"/>
<polyline points="146.94 , 325.94 229.90 , 325.94 " style="stroke-width:1;stroke:#000000;fill:#000000;stroke-opacity:1.000000;fill-opacity:0.000000"/>
<polyline points="239.11 , 240.66 322.07 , 240.66 " style="stroke-width:1;stroke:#000000;fill:#000000;stroke-opacity:1.000000;fill-opacity:0.000000"/>
<polyline points="280.59 , 240.66 280.59 , 361.80 " style="stroke-width:1;stroke:#000000;fill:#000000;stroke-opacity:1.000000;fill-opacity:0.000000"/>
<polyline points="239.11 , 361.80 322.07 , 361.80 " style="stroke-width:1;stroke:#000000;fill:#000000;stroke-opacity:1.000000;fill-opacity:0.000000"/>
<polygon points="338.91 , 542.80 338.91 , 25.27 633.87 , 25.27 633.87 , 542.80 " style="stroke-width:1;stroke:#FFFFFF;fill:#E5E5E5;stroke-opacity:0.000000;fill-opacity:1.000000" />
<polyline points="338.91 , 453.47 633.87 , 453.47 " style="stroke-width:0;stroke:#F2F2F2;fill:#000000;stroke-opacity:1.000000;fill-opacity:0.000000"/>
<polyline points="338.91 , 321.87 633.87 , 321.87 " style="stroke-width:0;stroke:#F2F2F2;fill:#000000;stroke-opacity:1.000000;fill-opacity:0.000000"/>
<polyline points="338.91 , 190.26 633.87 , 190.26 " style="stroke-width:0;stroke:#F2F2F2;fill:#000000;stroke-opacity:1.000000;fill-opacity:0.000000"/>
<polyline points="338.91 , 58.65 633.87 , 58.65 " style="stroke-width:0;stroke:#F2F2F2;fill:#000000;stroke-opacity:1.000000;fill-opacity:0.000000"/>
<polyline points="338.91 , 519.28 633.87 , 519.28 " style="stroke-width:1;stroke:#FFFFFF;fill:#000000;stroke-opacity:1.000000;fill-opacity:0.000000"/>
<polyline points="338.91 , 387.67 633.87 , 387.67 " style="stroke-width:1;stroke:#FFFFFF;fill:#000000;stroke-opacity:1.000000;fill-opacity:0.000000"/>
<polyline points="338.91 , 256.06 633.87 , 256.06 " style="stroke-width:1;stroke:#FFFFFF;fill:#000000;stroke-opacity:1.000000;fill-opacity:0.000000"/>
<polyline points="338.91 , 124.45 633.87 , 124.45 " style="stroke-width:1;stroke:#FFFFFF;fill:#000000;stroke-opacity:1.000000;fill-opacity:0.000000"/>
<polyline points="394.22 , 542.80 394.22 , 25.27 " style="stroke-width:1;stroke:#FFFFFF;fill:#000000;stroke-opacity:1.000000;fill-opacity:0.000000"/>
<polyline points="486.39 , 542.80 486.39 , 25.27 " style="stroke-width:1;stroke:#FFFFFF;fill:#000000;stroke-opacity:1.000000;fill-opacity:0.000000"/>
<polyline points="578.57 , 542.80 578.57 , 25.27 " style="stroke-width:1;stroke:#FFFFFF;fill:#000000;stroke-opacity:1.000000;fill-opacity:0.000000"/>
<rect x="352.74" y="383.51" width="82.96" height="135.76" style="stroke-width:1;stroke:#FFFFFF;fill:#00BFC4;stroke-opacity:0.000000;fill-opacity:1.000000" />
<rect x="352.74" y="149.58" width="82.96" height="369.69" style="stroke-width:1;stroke:#FFFFFF;fill:#00BFC4;stroke-opacity:0.000000;fill-opacity:1.000000" />
<rect x="444.91" y="217.10" width="82.96" height="302.18" style="stroke-width:1;stroke:#FFFFFF;fill:#00BFC4;stroke-opacity:0.000000;fill-opacity:1.000000" />
<rect x="537.09" y="299.53" width="82.96" height="219.74" style="stroke-width:1;stroke:#FFFFFF;fill:#00BFC4;stroke-opacity:0.000000;fill-opacity:1.000000" />
<polyline points="352.74 , 326.92 435.69 , 326.92 " style="stroke-width:1;stroke:#000000;fill:#000000;stroke-opacity:1.000000;fill-opacity:0.000000"/>
<polyline points="394.22 , 326.92 394.22 , 440.11 " style="stroke-width:1;stroke:#000000;fill:#000000;stroke-opacity:1.000000;fill-opacity:0.000000"/>
<polyline points="352.74 , 440.11 435.69 , 440.11 " style="stroke-width:1;stroke:#000000;fill:#000000;stroke-opacity:1.000000;fill-opacity:0.000000"/>
<polyline points="352.74 , 98.67 435.69 , 98.67 " style="stroke-width:1;stroke:#000000;fill:#000000;stroke-opacity:1.000000;fill-opacity:0.000000"/>
<polyline points="394.22 , 98.67 394.22 , 200.50 " style="stroke-width:1;stroke:#000000;fill:#000000;stroke-opacity:1.000000;fill-opacity:0.000000"/>
<polyline points="352.74 , 200.50 435.69 , 200.50 " style="stroke-width:1;stroke:#000000;fill:#000000;stroke-opacity:1.000000;fill-opacity:0.000000"/>
<polyline points="444.91 , 142.75 527.87 , 142.75 " style="stroke-width:1;stroke:#000000;fill:#000000;stroke-opacity:1.000000;fill-opacity:0.000000"/>
<polyline points="486.39 , 142.75 486.39 , 291.45 " style="stroke-width:1;stroke:#000000;fill:#000000;stroke-opacity:1.000000;fill-opacity:0.000000"/>
<polyline points="444.91 , 291.45 527.87 , 291.45 " style="stroke-width:1;stroke:#000000;fill:#000000;stroke-opacity:1.000000;fill-opacity:0.000000"/>
<polyline points="537.09 , 242.34 620.05 , 242.34 " style="stroke-width:1;stroke:#000000;fill:#000000;stroke-opacity:1.000000;fill-opacity:0.000000"/>
<polyline points="578.57 , 242.34 578.57 , 356.72 " style="stroke-width:1;stroke:#000000;fill:#000000;stroke-opacity:1.000000;fill-opacity:0.000000"/>
<polyline points="537.09 , 356.72 620.05 , 356.72 " style="stroke-width:1;stroke:#000000;fill:#000000;stroke-opacity:1.000000;fill-opacity:0.000000"/>
<text transform="translate(19.77,522.88)"  style="font-size:10" >0.0</text>
<text transform="translate(19.77,391.27)"  style="font-size:10" >0.2</text>
<text transform="translate(19.77,259.66)"  style="font-size:10" >0.4</text>
<text transform="translate(19.77,128.05)"  style="font-size:10" >0.6</text>
<polyline points="36.67 , 519.28 40.94 , 519.28 " style="stroke-width:1;stroke:#7F7F7F;fill:#000000;stroke-opacity:1.000000;fill-opacity:0.000000"/>
<polyline points="36.67 , 387.67 40.94 , 387.67 " style="stroke-width:1;stroke:#7F7F7F;fill:#000000;stroke-opacity:1.000000;fill-opacity:0.000000"/>
<polyline points="36.67 , 256.06 40.94 , 256.06 " style="stroke-width:1;stroke:#7F7F7F;fill:#000000;stroke-opacity:1.000000;fill-opacity:0.000000"/>
<polyline points="36.67 , 124.45 40.94 , 124.45 " style="stroke-width:1;stroke:#7F7F7F;fill:#000000;stroke-opacity:1.000000;fill-opacity:0.000000"/>
<polyline points="96.24 , 547.07 96.24 , 542.80 " style="stroke-width:1;stroke:#7F7F7F;fill:#000000;stroke-opacity:1.000000;fill-opacity:0.000000"/>
<polyline points="188.42 , 547.07 188.42 , 542.80 " style="stroke-width:1;stroke:#7F7F7F;fill:#000000;stroke-opacity:1.000000;fill-opacity:0.000000"/>
<polyline points="280.59 , 547.07 280.59 , 542.80 " style="stroke-width:1;stroke:#7F7F7F;fill:#000000;stroke-opacity:1.000000;fill-opacity:0.000000"/>
<text transform="translate(83.19,557.12)"  style="font-size:10" >Alone</text>
<text transform="translate(168.01,557.12)"  style="font-size:10" >Different</text>
<text transform="translate(268.02,557.12)"  style="font-size:10" >Same</text>
<polyline points="394.22 , 547.07 394.22 , 542.80 " style="stroke-width:1;stroke:#7F7F7F;fill:#000000;stroke-opacity:1.000000;fill-opacity:0.000000"/>
<polyline points="486.39 , 547.07 486.39 , 542.80 " style="stroke-width:1;stroke:#7F7F7F;fill:#000000;stroke-opacity:1.000000;fill-opacity:0.000000"/>
<polyline points="578.57 , 547.07 578.57 , 542.80 " style="stroke-width:1;stroke:#7F7F7F;fill:#000000;stroke-opacity:1.000000;fill-opacity:0.000000"/>
<text transform="translate(381.16,557.12)"  style="font-size:10" >Alone</text>
<text transform="translate(465.98,557.12)"  style="font-size:10" >Different</text>
<text transform="translate(566.00,557.12)"  style="font-size:10" >Same</text>
<text transform="translate(305.25,569.13)"  style="font-size:12" >NostrilType</text>
<text transform="translate(18.03,311.45) rotate(-90)"  style="font-size:12" >avgTMA2</text>
<rect x="642.74" y="259.91" width="59.05" height="48.26" style="stroke-width:1;stroke:#FFFFFF;fill:#FFFFFF;stroke-opacity:0.000000;fill-opacity:1.000000" />
<text transform="translate(647.01,271.37)"  style="font-size:10" >Block</text>
<rect x="647.01" y="274.99" width="14.45" height="14.45" style="stroke-width:1;stroke:#FFFFFF;fill:#F2F2F2;stroke-opacity:1.000000;fill-opacity:1.000000" />
<rect x="647.01" y="274.99" width="14.45" height="14.45" style="stroke-width:1;stroke:#FFFFFF;fill:#F8766D;stroke-opacity:0.000000;fill-opacity:1.000000" />
<polyline points="647.01 , 289.44 661.46 , 274.99 " style="stroke-width:1;stroke:#FFFFFF;fill:#000000;stroke-opacity:0.000000;fill-opacity:0.000000"/>
<rect x="647.01" y="289.44" width="14.45" height="14.45" style="stroke-width:1;stroke:#FFFFFF;fill:#F2F2F2;stroke-opacity:1.000000;fill-opacity:1.000000" />
<rect x="647.01" y="289.44" width="14.45" height="14.45" style="stroke-width:1;stroke:#FFFFFF;fill:#00BFC4;stroke-opacity:0.000000;fill-opacity:1.000000" />
<polyline points="647.01 , 303.90 661.46 , 289.44 " style="stroke-width:1;stroke:#FFFFFF;fill:#000000;stroke-opacity:0.000000;fill-opacity:0.000000"/>
<text transform="translate(663.27,285.81)"  style="font-size:10" >Linalool</text>
<text transform="translate(663.27,300.27)"  style="font-size:10" >Nonenol</text>
</svg>
